<svg xmlns="http://www.w3.org/2000/svg" version="1.1" xmlns:xlink="http://www.w3.org/1999/xlink" xmlns:svgjs="http://svgjs.dev/svgjs" width="630" height="625"><svg width="630" height="625" viewBox="0 0 630 625" fill="none" xmlns="http://www.w3.org/2000/svg">
<rect x="61" y="56" width="569" height="569" rx="94.5122" fill="#FF4646"></rect>
<rect width="569" height="569" rx="94.5122" fill="#8DEB00"></rect>
<path d="M479.249 137.371H431.395C426.469 137.371 422.475 141.364 422.475 146.291V424.072C422.475 428.998 426.469 432.992 431.395 432.992H479.249C484.175 432.992 488.169 428.998 488.169 424.072V146.291C488.169 141.364 484.175 137.371 479.249 137.371Z" fill="black"></path>
<path d="M428.93 214.167L389.243 187.43C385.157 184.678 379.613 185.758 376.861 189.844L240.008 392.979C237.255 397.065 238.336 402.608 242.422 405.361L282.109 432.098C286.195 434.851 291.738 433.77 294.491 429.684L431.343 226.549C434.096 222.463 433.015 216.92 428.93 214.167Z" fill="black"></path>
<path d="M313.885 297.2L289.959 255.757C287.495 251.491 282.04 250.029 277.774 252.492L65.6549 374.959C61.3885 377.423 59.9267 382.878 62.3899 387.144L86.3166 428.587C88.7798 432.853 94.2352 434.315 98.5016 431.852L310.62 309.385C314.887 306.921 316.349 301.466 313.885 297.2Z" fill="black"></path>
</svg><style>@media (prefers-color-scheme: light) { :root { filter: none; } }
@media (prefers-color-scheme: dark) { :root { filter: none; } }
</style></svg>