<svg width="49" height="186" viewBox="0 0 49 186" fill="none" xmlns="http://www.w3.org/2000/svg">
<path d="M36.9033 2.02679C38.4231 2.02679 39.183 2.78669 39.183 4.30647L47.1619 181.665C47.1619 182.425 46.9339 183.033 46.478 183.489C46.022 184.097 45.4901 184.401 44.8822 184.401H28.9245C27.1007 184.401 26.1889 183.565 26.1889 181.893L25.277 119.43H23.6812L22.5414 181.893C22.2374 183.565 21.3255 184.401 19.8058 184.401H4.30398C3.54408 184.401 2.93616 184.097 2.48023 183.489C2.02429 183.033 1.79633 182.425 1.79633 181.665L9.77519 4.30647C10.0791 2.78669 10.915 2.02679 12.2828 2.02679H36.9033ZM25.277 95.0375L24.5931 36.9058L23.6812 95.0375H25.277Z" fill="#FF4646" stroke="black" stroke-width="2.5669"/>
</svg>
