<svg width="45" height="186" viewBox="0 0 45 186" fill="none" xmlns="http://www.w3.org/2000/svg">
<path d="M35.9518 90.0689C40.9671 93.1084 43.4747 97.5158 43.4747 103.291V166.894C43.4747 171.605 41.727 175.709 38.2315 179.204C34.888 182.548 30.8606 184.219 26.1492 184.219H3.80841C2.28863 184.219 1.52875 183.384 1.52875 181.712V4.35308C1.52875 2.68132 2.28863 1.84546 3.80841 1.84546H26.1492C30.5566 1.84546 34.508 3.59318 38.0035 7.08869C41.651 10.4322 43.4747 14.4597 43.4747 19.171V77.3027C43.4747 83.2299 40.9671 87.4852 35.9518 90.0689ZM21.5899 82.5459H22.7297V18.2591H21.5899V82.5459ZM22.7297 98.7317H21.5899V167.806H22.7297V98.7317Z" fill="#FF4646" stroke="black" stroke-width="2.5669"/>
</svg>
