<svg width="45" height="187" viewBox="0 0 45 187" fill="none" xmlns="http://www.w3.org/2000/svg">
<path d="M40.1928 93.4949C42.0166 93.4949 42.9284 94.3307 42.9284 96.0025V165.989C42.9284 171.46 41.0287 176.095 37.2293 179.895C33.4298 183.694 28.8704 185.594 23.5512 185.594H21.4995C15.8763 185.594 11.165 183.694 7.36551 179.895C3.56605 176.095 1.66632 171.46 1.66632 165.989V21.2292C1.66632 15.606 3.56605 10.8946 7.36551 7.09517C11.165 3.29571 15.8003 1.396 21.2715 1.396H23.3232C28.6425 1.396 33.2018 3.29571 37.0013 7.09517C40.8007 10.8946 42.7765 15.606 42.9284 21.2292V89.8474C42.9284 91.5191 42.0166 92.355 40.1928 92.355H25.147C23.6272 92.355 22.8673 91.5191 22.8673 89.8474V18.7215H21.7275V168.04H22.8673V96.0025C22.8673 94.3307 23.6272 93.4949 25.147 93.4949H40.1928Z" fill="#FF4646" stroke="black" stroke-width="2.5669"/>
</svg>
