<svg width="45" height="188" viewBox="0 0 45 188" fill="none" xmlns="http://www.w3.org/2000/svg">
<path d="M40.8496 87.5346C42.5213 87.5346 43.3572 88.3704 43.3572 90.0422V182.597C43.3572 184.269 42.5213 185.105 40.8496 185.105H31.7309C30.3631 185.105 29.5272 184.421 29.2232 183.053L28.9953 180.773C26.2596 184.421 22.8401 186.244 18.7367 186.244C17.065 186.244 15.3932 186.017 13.7214 185.561C12.2016 185.105 10.4539 184.269 8.47817 183.053C6.65443 181.685 5.13464 179.481 3.91881 176.442C2.70298 173.402 2.09509 169.679 2.09509 165.272V21.6519C2.09509 16.0287 3.99481 11.3175 7.79426 7.51799C11.5937 3.71853 16.305 1.81879 21.9282 1.81879H23.524C28.9953 1.81879 33.6306 3.71853 37.43 7.51799C41.3815 11.3175 43.3572 16.0287 43.3572 21.6519V83.8871C43.3572 85.5588 42.5213 86.3947 40.8496 86.3947H25.5757C23.904 86.3947 23.0681 85.5588 23.0681 83.8871V19.1443H21.9282V168.691H23.0681V90.0422C23.0681 88.3704 23.904 87.5346 25.5757 87.5346H40.8496Z" fill="#FF4646" stroke="black" stroke-width="2.5669"/>
</svg>
