<svg width="45" height="186" viewBox="0 0 45 186" fill="none" xmlns="http://www.w3.org/2000/svg">
<path d="M40.31 1.80518C41.9818 1.80518 42.8176 2.64104 42.8176 4.31279V181.672C42.8176 183.343 41.9818 184.179 40.31 184.179H25.2641C23.5924 184.179 22.7565 183.343 22.7565 181.672V100.059H21.6167V181.672C21.6167 183.343 20.8568 184.179 19.337 184.179H4.06316C2.3914 184.179 1.55554 183.343 1.55554 181.672V4.31279C1.55554 2.64104 2.3914 1.80518 4.06316 1.80518H19.337C19.9449 1.80518 20.4768 2.1091 20.9328 2.717C21.3887 3.17294 21.6167 3.70488 21.6167 4.31279V82.2777H22.7565V4.31279C22.7565 2.64104 23.5924 1.80518 25.2641 1.80518H40.31Z" fill="#FF4646" stroke="black" stroke-width="2.5669"/>
</svg>
