<svg width="63" height="186" viewBox="0 0 63 186" fill="none" xmlns="http://www.w3.org/2000/svg">
<path d="M58.5233 2.02679C60.1951 2.02679 61.031 2.86267 61.031 4.53443V181.893C61.031 183.565 60.1951 184.401 58.5233 184.401H43.4775C41.8057 184.401 40.9698 183.565 40.9698 181.893V88.8824L37.7783 181.893C37.7783 183.565 36.9424 184.401 35.2706 184.401H27.2918C25.62 184.401 24.7841 183.565 24.7841 181.893L21.5926 88.8824V181.893C21.5926 183.565 20.7567 184.401 19.0849 184.401H4.03908C2.36732 184.401 1.53143 183.565 1.53143 181.893V4.53443C1.53143 2.86267 2.36732 2.02679 4.03908 2.02679H25.2401C26.9118 2.02679 27.7477 2.86267 27.7477 4.53443L31.6231 81.8154L34.8147 4.30647C34.8147 2.78669 35.6506 2.02679 37.3223 2.02679H58.5233Z" fill="#FF4646" stroke="black" stroke-width="2.5669"/>
</svg>
