<svg width="52" height="186" viewBox="0 0 52 186" fill="none" xmlns="http://www.w3.org/2000/svg">
<path d="M47.3807 2.02679C49.0525 2.02679 49.8884 2.86268 49.8884 4.53443V181.893C49.8884 183.565 49.0525 184.401 47.3807 184.401H31.195C29.8272 184.401 28.9914 183.641 28.6874 182.121L21.6204 106.892V181.893C21.6204 183.565 20.7845 184.401 19.1128 184.401H4.06691C2.39515 184.401 1.55927 183.565 1.55927 181.893V4.53443C1.55927 2.86268 2.39515 2.02679 4.06691 2.02679H20.2526C21.6204 2.02679 22.4563 2.78669 22.7602 4.30647L29.5993 84.0951L29.8272 4.53443C29.8272 2.86268 30.6631 2.02679 32.3349 2.02679H47.3807Z" fill="#FF4646" stroke="black" stroke-width="2.5669"/>
</svg>
