<svg width="51" height="186" viewBox="0 0 51 186" fill="none" xmlns="http://www.w3.org/2000/svg">
<path d="M37.2587 102.795L49.3409 181.216C49.3409 181.975 49.113 182.659 48.657 183.267C48.2011 183.723 47.5932 183.951 46.8333 183.951H31.7875C30.4196 183.951 29.5838 183.267 29.2798 181.899L21.7569 120.348V181.672C21.7569 183.343 20.921 184.179 19.2492 184.179H4.20336C2.5316 184.179 1.69574 183.343 1.69574 181.672V4.31279C1.69574 2.64104 2.5316 1.80518 4.20336 1.80518H25.4043C30.2677 1.80518 34.3711 3.5529 37.7146 7.0484C41.2101 10.3919 42.9578 14.4194 42.9578 19.1307V90.0286C42.9578 95.0439 41.0581 99.2993 37.2587 102.795ZM22.8967 18.2188H21.7569V90.7125H22.8967V18.2188Z" fill="#FF4646" stroke="black" stroke-width="2.5669"/>
</svg>
