<svg width="45" height="188" viewBox="0 0 45 188" fill="none" xmlns="http://www.w3.org/2000/svg">
<path d="M23.4051 2C28.8764 2 33.5117 3.89972 37.3112 7.69918C41.1106 11.4986 43.0104 16.058 43.0104 21.3772V73.8098C43.0104 75.4815 42.1745 76.3174 40.5027 76.3174H25.4569C23.7851 76.3174 22.9492 75.4815 22.9492 73.8098V22.973H21.8094V72.8979C21.8094 74.8736 22.2653 76.5454 23.1772 77.9132L37.9951 100.482C41.3386 105.953 43.0104 111.652 43.0104 117.58V166.593C43.0104 172.064 41.1106 176.699 37.3112 180.499C33.5117 184.298 28.8764 186.198 23.4051 186.198H21.1255C15.8062 186.198 11.2469 184.298 7.44742 180.499C3.64796 176.699 1.74823 172.064 1.74823 166.593V117.807C1.74823 116.136 2.58412 115.3 4.25588 115.3H19.3017C20.9735 115.3 21.8094 116.136 21.8094 117.807L21.3534 165.225H22.9492V118.719C22.9492 116.896 22.4933 115.224 21.5814 113.704L6.76351 91.1353C3.41999 86.272 1.74823 80.5728 1.74823 74.0377V21.3772C1.74823 16.058 3.64796 11.4986 7.44742 7.69918C11.2469 3.89972 15.8062 2 21.1255 2H23.4051Z" fill="#FF4646" stroke="black" stroke-width="2.5669"/>
</svg>
