<svg width="206" height="33" viewBox="0 0 206 33" fill="none" xmlns="http://www.w3.org/2000/svg">
<path d="M121.086 0H126.914C127.514 0 128 0.432299 128 0.965567V31.0344C128 31.5677 127.514 32 126.914 32H121.086C120.486 32 120 31.5677 120 31.0344V0.965567C120 0.432299 120.486 0 121.086 0Z" fill="white"/>
<path d="M61.0863 0H66.9137C67.5137 0 68 0.432299 68 0.965567V31.0344C68 31.5677 67.5137 32 66.9137 32H61.0863C60.4863 32 60 31.5677 60 31.0344V0.965567C60 0.432299 60.4863 0 61.0863 0Z" fill="white" fill-opacity="0.72"/>
<path d="M1.08626 0H6.91374C7.51366 0 8 0.432299 8 0.965567V31.0344C8 31.5677 7.51366 32 6.91374 32H1.08626C0.486336 32 0 31.5677 0 31.0344V0.965567C0 0.432299 0.486336 0 1.08626 0Z" fill="white" fill-opacity="0.48"/>
<path d="M81.0863 0H86.9137C87.5137 0 88 0.432299 88 0.965567V31.0344C88 31.5677 87.5137 32 86.9137 32H81.0863C80.4863 32 80 31.5677 80 31.0344V0.965567C80 0.432299 80.4863 0 81.0863 0Z" fill="white" fill-opacity="0.8"/>
<path d="M141.086 0H146.914C147.514 0 148 0.432299 148 0.965567V31.0344C148 31.5677 147.514 32 146.914 32H141.086C140.486 32 140 31.5677 140 31.0344V0.965567C140 0.432299 140.486 0 141.086 0Z" fill="white"/>
<path d="M150.767 8.88875L154.888 4.7681C155.312 4.34389 155.962 4.30568 156.339 4.68276L177.601 25.9447C177.978 26.3217 177.94 26.9713 177.516 27.3955L173.395 31.5162C172.971 31.9404 172.321 31.9786 171.944 31.6015L150.682 10.3396C150.305 9.96254 150.343 9.31296 150.767 8.88875Z" fill="white"/>
<path d="M173.281 21.6782L174.789 16.0493C174.944 15.4698 175.488 15.1119 176.003 15.2499L205.047 23.0323C205.562 23.1703 205.854 23.752 205.699 24.3315L204.191 29.9604C204.035 30.5399 203.492 30.8977 202.977 30.7597L173.932 22.9773C173.417 22.8393 173.126 22.2576 173.281 21.6782Z" fill="white"/>
<path d="M41.0863 0H46.9137C47.5137 0 48 0.432299 48 0.965567V31.0344C48 31.5677 47.5137 32 46.9137 32H41.0863C40.4863 32 40 31.5677 40 31.0344V0.965567C40 0.432299 40.4863 0 41.0863 0Z" fill="white" fill-opacity="0.64"/>
<path d="M21.0863 0H26.9137C27.5137 0 28 0.432299 28 0.965567V31.0344C28 31.5677 27.5137 32 26.9137 32H21.0863C20.4863 32 20 31.5677 20 31.0344V0.965567C20 0.432299 20.4863 0 21.0863 0Z" fill="white" fill-opacity="0.56"/>
<path d="M101.086 0H106.914C107.514 0 108 0.432299 108 0.965567V31.0344C108 31.5677 107.514 32 106.914 32H101.086C100.486 32 100 31.5677 100 31.0344V0.965567C100 0.432299 100.486 0 101.086 0Z" fill="white"/>
</svg>
