<svg width="207" height="33" viewBox="0 0 207 33" fill="none" xmlns="http://www.w3.org/2000/svg">
<path d="M85.8737 0H80.0462C79.4463 0 78.96 0.432299 78.96 0.965567V31.0344C78.96 31.5677 79.4463 32 80.0462 32H85.8737C86.4736 32 86.96 31.5677 86.96 31.0344V0.965567C86.96 0.432299 86.4736 0 85.8737 0Z" fill="white"/>
<path d="M145.874 0H140.046C139.446 0 138.96 0.432299 138.96 0.965567V31.0344C138.96 31.5677 139.446 32 140.046 32H145.874C146.474 32 146.96 31.5677 146.96 31.0344V0.965567C146.96 0.432299 146.474 0 145.874 0Z" fill="white" fill-opacity="0.72"/>
<path d="M205.874 0H200.046C199.446 0 198.96 0.432299 198.96 0.965567V31.0344C198.96 31.5677 199.446 32 200.046 32H205.874C206.474 32 206.96 31.5677 206.96 31.0344V0.965567C206.96 0.432299 206.474 0 205.874 0Z" fill="white" fill-opacity="0.48"/>
<path d="M125.874 0H120.046C119.446 0 118.96 0.432299 118.96 0.965567V31.0344C118.96 31.5677 119.446 32 120.046 32H125.874C126.474 32 126.96 31.5677 126.96 31.0344V0.965567C126.96 0.432299 126.474 0 125.874 0Z" fill="white" fill-opacity="0.8"/>
<path d="M65.8737 0H60.0462C59.4463 0 58.96 0.432299 58.96 0.965567V31.0344C58.96 31.5677 59.4463 32 60.0462 32H65.8737C66.4736 32 66.96 31.5677 66.96 31.0344V0.965567C66.96 0.432299 66.4736 0 65.8737 0Z" fill="white"/>
<path d="M56.1915 8.88875L52.0708 4.7681C51.6466 4.34389 50.9971 4.30568 50.62 4.68276L29.3581 25.9447C28.981 26.3217 29.0192 26.9713 29.4434 27.3955L33.5641 31.5162C33.9883 31.9404 34.6379 31.9786 35.0149 31.6015L56.2768 10.3396C56.6539 9.96254 56.6157 9.31296 56.1915 8.88875Z" fill="white"/>
<path d="M33.6791 21.6782L32.1708 16.0493C32.0155 15.4698 31.4721 15.1119 30.957 15.2499L1.91269 23.0323C1.39759 23.1703 1.1059 23.752 1.26117 24.3315L2.76943 29.9604C2.9247 30.5399 3.46814 30.8977 3.98324 30.7597L33.0275 22.9773C33.5426 22.8393 33.8343 22.2576 33.6791 21.6782Z" fill="white"/>
<path d="M165.874 0H160.046C159.446 0 158.96 0.432299 158.96 0.965567V31.0344C158.96 31.5677 159.446 32 160.046 32H165.874C166.474 32 166.96 31.5677 166.96 31.0344V0.965567C166.96 0.432299 166.474 0 165.874 0Z" fill="white" fill-opacity="0.64"/>
<path d="M185.874 0H180.046C179.446 0 178.96 0.432299 178.96 0.965567V31.0344C178.96 31.5677 179.446 32 180.046 32H185.874C186.474 32 186.96 31.5677 186.96 31.0344V0.965567C186.96 0.432299 186.474 0 185.874 0Z" fill="white" fill-opacity="0.56"/>
<path d="M105.874 0H100.046C99.4463 0 98.96 0.432299 98.96 0.965567V31.0344C98.96 31.5677 99.4463 32 100.046 32H105.874C106.474 32 106.96 31.5677 106.96 31.0344V0.965567C106.96 0.432299 106.474 0 105.874 0Z" fill="white"/>
</svg>
