<svg width="37" height="186" viewBox="0 0 37 186" fill="none" xmlns="http://www.w3.org/2000/svg">
<path d="M32.2518 2.02679C33.9236 2.02679 34.7595 2.86267 34.7595 4.53443V17.5286C34.7595 19.2003 33.9236 20.0362 32.2518 20.0362H21.5373V82.4993H32.2518C33.9236 82.4993 34.7595 83.2592 34.7595 84.779V99.1409C34.7595 100.813 33.9236 101.649 32.2518 101.649H21.5373V166.391H32.2518C33.9236 166.391 34.7595 167.227 34.7595 168.899V181.893C34.7595 183.565 33.9236 184.401 32.2518 184.401H3.98384C2.31208 184.401 1.4762 183.565 1.4762 181.893V4.53443C1.4762 2.86267 2.31208 2.02679 3.98384 2.02679H32.2518Z" fill="#FF4646" stroke="black" stroke-width="2.5669"/>
</svg>
