<svg width="38" height="186" viewBox="0 0 38 186" fill="none" xmlns="http://www.w3.org/2000/svg">
<path d="M33.8633 1.65063C34.4712 1.65063 35.0031 1.95456 35.459 2.56246C36.067 3.0184 36.3709 3.55034 36.3709 4.15825V17.1525C36.3709 17.7604 36.067 18.3682 35.459 18.9761C35.0031 19.432 34.4712 19.6601 33.8633 19.6601H21.781V81.8952H33.8633C34.4712 81.8952 35.0031 82.1991 35.459 82.807C36.067 83.263 36.3709 83.7949 36.3709 84.4028V98.7648C36.3709 99.3727 36.067 99.9806 35.459 100.588C35.0031 101.044 34.4712 101.272 33.8633 101.272H21.781V181.517C21.781 182.125 21.477 182.733 20.8691 183.341C20.4132 183.797 19.8813 184.025 19.2734 184.025H4.2275C2.55574 184.025 1.71985 183.189 1.71985 181.517V4.15825C1.71985 2.4865 2.55574 1.65063 4.2275 1.65063H33.8633Z" fill="#FF4646" stroke="black" stroke-width="2.5669"/>
</svg>
