<svg width="45" height="188" viewBox="0 0 45 188" fill="none" xmlns="http://www.w3.org/2000/svg">
<path d="M43.0382 21.8332V166.593C43.0382 171.912 41.0625 176.547 37.111 180.499C33.1596 184.298 28.5242 186.198 23.205 186.198H21.6092C16.138 186.198 11.4267 184.298 7.47525 180.499C3.67579 176.547 1.77606 171.912 1.77606 166.593V21.8332C1.77606 16.3619 3.67579 11.7266 7.47525 7.92714C11.4267 3.97571 16.138 2 21.6092 2H23.205C28.5242 2 33.0836 3.97571 36.8831 7.92714C40.8345 11.7266 42.8862 16.3619 43.0382 21.8332ZM22.977 169.1V19.3255H21.8372V169.1H22.977Z" fill="#FF4646" stroke="black" stroke-width="2.5669"/>
</svg>
