<svg width="45" height="187" viewBox="0 0 45 187" fill="none" xmlns="http://www.w3.org/2000/svg">
<path d="M40.3248 1.84546C41.9966 1.84546 42.8325 2.68132 42.8325 4.35308V165.526C42.8325 170.845 40.8568 175.481 36.9053 179.432C33.1059 183.232 28.5465 185.131 23.2273 185.131H20.9476C15.4764 185.131 10.8411 183.232 7.0416 179.432C3.24214 175.481 1.34241 170.845 1.34241 165.526V4.35308C1.34241 2.68132 2.17829 1.84546 3.85005 1.84546H18.8959C20.5677 1.84546 21.4035 2.68132 21.4035 4.35308V167.35H22.5434V4.35308C22.5434 2.68132 23.3793 1.84546 25.051 1.84546H40.3248Z" fill="#FF4646" stroke="black" stroke-width="2.5669"/>
</svg>
